PathFileType	4	(X/Y/Z)	RBDS08static.trc
DataRate	CameraRate	NumFrames	NumMarkers	Units	OrigDataRate	OrigDataStartFrame	OrigNumFrames
150.000000	150.000000	4	48	mm	150.000000	0	150
Frame#	Time	L.Ankle			L.Ankle.Medial			L.ASIS			L.GTR			L.Heel.Bottom			L.Heel.Lateral			L.Heel.Top			L.HF			L.Iliac.Crest			L.Knee			L.Knee.Medial			L.MT1			L.MT2			L.MT5			L.PSIS			L.Shank.Bottom.Lateral			L.Shank.Bottom.Medial			L.Shank.Top.Lateral			L.Shank.Top.Medial			L.Thigh.Bottom.Lateral			L.Thigh.Bottom.Medial			L.Thigh.Top.Lateral			L.Thigh.Top.Medial			L.TT			R.Ankle			R.Ankle.Medial			R.ASIS			R.GTR			R.Heel.Bottom			R.Heel.Lateral			R.Heel.Top			R.HF			R.Iliac.Crest			R.Knee			R.Knee.Medial			R.MT1			R.MT2			R.MT5			R.PSIS			R.Shank.Bottom.Lateral			R.Shank.Bottom.Medial			R.Shank.Top.Lateral			R.Shank.Top.Medial			R.Thigh.Bottom.Lateral			R.Thigh.Bottom.Medial			R.Thigh.Top.Lateral			R.Thigh.Top.Medial			R.TT			
		X1	Y1	Z1	X2	Y2	Z2	X3	Y3	Z3	X4	Y4	Z4	X5	Y5	Z5	X6	Y6	Z6	X7	Y7	Z7	X8	Y8	Z8	X9	Y9	Z9	X10	Y10	Z10	X11	Y11	Z11	X12	Y12	Z12	X13	Y13	Z13	X14	Y14	Z14	X15	Y15	Z15	X16	Y16	Z16	X17	Y17	Z17	X18	Y18	Z18	X19	Y19	Z19	X20	Y20	Z20	X21	Y21	Z21	X22	Y22	Z22	X23	Y23	Z23	X24	Y24	Z24	X25	Y25	Z25	X26	Y26	Z26	X27	Y27	Z27	X28	Y28	Z28	X29	Y29	Z29	X30	Y30	Z30	X31	Y31	Z31	X32	Y32	Z32	X33	Y33	Z33	X34	Y34	Z34	X35	Y35	Z35	X36	Y36	Z36	X37	Y37	Z37	X38	Y38	Z38	X39	Y39	Z39	X40	Y40	Z40	X41	Y41	Z41	X42	Y42	Z42	X43	Y43	Z43	X44	Y44	Z44	X45	Y45	Z45	X46	Y46	Z46	X47	Y47	Z47	X48	Y48	Z48	

1	0	756.6212158203125	103.2407150268555	1046.835083007813	774.1622314453125	108.3573989868164	1131.255859375	902.2012939453125	1042.364501953125	1109.330810546875	832.8750610351563	938.8413696289063	1048.442626953125	670.9927978515625	44.78377914428711	1081.074829101563	702.0891723632813	63.11370849609375	1036.857055664063	685.3107299804688	94.65694427490234	1085.979248046875	787.0578002929688	480.5150756835938	1030.85595703125	829.33056640625	1104.975463867188	1080.31591796875	791.9006958007813	539.9453735351563	1037.631958007813	780.7417602539063	522.5464477539063	1150.912719726563	899.6508178710938	62.03977203369141	1116.423461914063	903.2182006835938	67.04094696044922	1075.250366210938	861.0453491210938	50.40847396850586	1009.36083984375	732.09619140625	1059.750732421875	1179.664184570313	745.02392578125	176.3191223144531	1038.023315429688	706.97900390625	177.2192993164063	1073.361938476563	740.0748901367188	256.2652893066406	1026.098388671875	704.6675415039063	261.6368103027344	1065.980346679688	801.7306518554688	674.597900390625	1021.571594238281	742.9540405273438	669.2747802734375	1064.996337890625	794.947998046875	785.1227416992188	1028.451782226563	742.2521362304688	779.5777587890625	1074.978759765625	836.3385009765625	453.1411743164063	1079.524780273438	737.399658203125	108.059684753418	1407.123657226563	762.7341918945313	114.9173355102539	1323.880126953125	908.3773193359375	1038.845947265625	1345.00048828125	834.3800659179688	944.6513671875	1403.27392578125	657.7769775390625	43.90910339355469	1371.102416992188	685.6851806640625	61.07137298583984	1412.8046875	668.9874877929688	93.18996429443359	1369.0390625	771.0023803710938	487.6081237792969	1433.0556640625	840.327392578125	1098.011352539063	1376.672729492188	775.27197265625	543.3896484375	1425.6435546875	764.6688842773438	521.9160766601563	1312.95361328125	884.4170532226563	60.76969146728516	1330.526245117188	890.861328125	68.78372955322266	1376.704223632813	852.4540405273438	56.68362045288086	1436.8017578125	734.9423828125	1061.092895507813	1282.718627929688	716.6646118164063	192.3817443847656	1418.362060546875	690.2679443359375	196.3400573730469	1369.479370117188	707.7575073242188	272.8631896972656	1426.432006835938	686.456787109375	275.9280700683594	1376.864868164063	791.12353515625	652.7932739257813	1435.294555664063	731.6848754882813	654.587890625	1391.590576171875	793.5343627929688	763.3158569335938	1432.95751953125	738.5121459960938	764.491455078125	1390.822387695313	818.9682006835938	461.1722412109375	1385.540283203125	
2	0.006666666666666667	756.6241455078125	103.2433929443359	1046.832397460938	774.16552734375	108.355712890625	1131.255737304688	902.1481323242188	1042.368408203125	1109.325439453125	832.8330688476563	938.840576171875	1048.44970703125	670.9867553710938	44.78916549682617	1081.073364257813	702.0932006835938	63.10284423828125	1036.854248046875	685.2968139648438	94.66199493408203	1085.978759765625	787.0475463867188	480.5189819335938	1030.856079101563	829.2642822265625	1104.955322265625	1080.30859375	791.8736572265625	539.9385375976563	1037.631958007813	780.7495727539063	522.5263671875	1150.91357421875	900.2144165039063	62.68848037719727	1116.308715820313	903.2195434570313	67.04389953613281	1075.249755859375	861.0551147460938	50.4044075012207	1009.359069824219	732.0462036132813	1059.741455078125	1179.67919921875	745.0164794921875	176.3196868896484	1038.01904296875	706.9761962890625	177.2093658447266	1073.35498046875	740.0598754882813	256.26708984375	1026.102294921875	704.6538696289063	261.6320495605469	1065.982543945313	801.7088623046875	674.5914916992188	1021.566711425781	742.9269409179688	669.2710571289063	1064.9912109375	794.9075317382813	785.121337890625	1028.459228515625	742.2215576171875	779.5813598632813	1074.983764648438	836.3259887695313	453.1448059082031	1079.521362304688	737.3860473632813	108.0394439697266	1407.122314453125	762.7266235351563	114.9246139526367	1323.879638671875	908.3364868164063	1038.8408203125	1344.994506835938	834.3638305664063	944.6392211914063	1403.2646484375	657.774169921875	43.89661026000977	1371.103149414063	685.683349609375	61.05958557128906	1412.810180664063	668.9774169921875	93.18801116943359	1369.0419921875	771.0123291015625	487.6050720214844	1433.056762695313	840.3043212890625	1098.006225585938	1376.680297851563	775.2659912109375	543.3779907226563	1425.646606445313	764.6521606445313	521.91162109375	1312.957763671875	884.415283203125	60.76840209960938	1330.528930664063	890.8541870117188	68.78633880615234	1376.697509765625	852.4553833007813	56.68915557861328	1436.798217773438	734.8992919921875	1061.096801757813	1282.735717773438	716.6530151367188	192.3745727539063	1418.355346679688	690.2545776367188	196.3379974365234	1369.477416992188	707.751220703125	272.8592224121094	1426.42529296875	686.4464111328125	275.9165344238281	1376.869750976563	791.1231079101563	652.7849731445313	1435.302368164063	731.6751708984375	654.5771484375	1391.59326171875	793.5134887695313	763.3134155273438	1432.962524414063	738.4994506835938	764.4744873046875	1390.823608398438	818.9568481445313	461.1693115234375	1385.541625976563	
3	0.01333333333333333	756.6185302734375	103.2395782470703	1046.834838867188	774.1651000976563	108.3590545654297	1131.257202148438	902.09521484375	1042.375244140625	1109.333984375	832.777587890625	938.8395385742188	1048.462280273438	670.9822998046875	44.78316497802734	1081.085205078125	702.0859375	63.0983772277832	1036.861083984375	685.2977294921875	94.64714813232422	1085.982177734375	787.0319213867188	480.5133056640625	1030.8564453125	829.1859130859375	1104.94091796875	1080.316772460938	791.8626708984375	539.9360961914063	1037.638305664063	780.7227783203125	522.53173828125	1150.921508789063	899.6483764648438	62.04412078857422	1116.417724609375	903.2166137695313	67.04960632324219	1075.24658203125	861.0455932617188	50.41015243530273	1009.344299316406	732.0020141601563	1059.734741210938	1179.700073242188	745.0131225585938	176.3194122314453	1038.019897460938	706.9678344726563	177.2047729492188	1073.355590820313	740.0560913085938	256.263916015625	1026.107543945313	704.6432495117188	261.6224060058594	1065.983764648438	801.6873779296875	674.599853515625	1021.568359375	742.90185546875	669.2653198242188	1064.998046875	794.8853759765625	785.1190185546875	1028.458862304688	742.1951293945313	779.5758666992188	1074.984497070313	836.3171997070313	453.1392211914063	1079.5263671875	737.3746337890625	108.037223815918	1407.153442382813	762.7191772460938	114.9167098999023	1323.888671875	908.3072509765625	1038.836059570313	1344.99169921875	834.3302001953125	944.6304321289063	1403.273559570313	657.7700805664063	43.89419174194336	1371.103515625	685.6818237304688	61.05279922485352	1412.814208984375	668.9794311523438	93.17255401611328	1369.046997070313	771.0062255859375	487.5968017578125	1433.066284179688	840.2835083007813	1098	1376.680419921875	775.2681884765625	543.3738403320313	1425.65185546875	764.6420288085938	521.9036254882813	1312.953857421875	884.4178466796875	60.78665924072266	1330.527709960938	890.84228515625	68.82232666015625	1376.689086914063	852.4556274414063	56.68691253662109	1436.80126953125	734.8517456054688	1061.074951171875	1282.74853515625	716.6390380859375	192.3739166259766	1418.361450195313	690.2504272460938	196.3264617919922	1369.482177734375	707.7407836914063	272.8549194335938	1426.420654296875	686.4373168945313	275.9045104980469	1376.859985351563	791.1115112304688	652.7891845703125	1435.307006835938	731.6682739257813	654.568603515625	1391.611572265625	793.5006103515625	763.3013305664063	1432.970581054688	738.4790649414063	764.4649658203125	1390.841064453125	818.9608764648438	461.1593627929688	1385.531860351563	
4	0.02	756.6099243164063	103.2426605224609	1046.82568359375	774.1531372070313	108.3570098876953	1131.248291015625	902.0433959960938	1042.376831054688	1109.337768554688	832.7267456054688	938.8435668945313	1048.467041015625	670.987060546875	44.77425765991211	1081.070922851563	702.0843505859375	63.0956916809082	1036.853393554688	685.295166015625	94.65780639648438	1085.9765625	787.0218505859375	480.5052185058594	1030.856201171875	829.1218872070313	1104.92578125	1080.316650390625	791.8442993164063	539.9306030273438	1037.630981445313	780.7184448242188	522.5297241210938	1150.908081054688	900.2129516601563	62.69277954101563	1116.303955078125	903.2168579101563	67.05327606201172	1075.246459960938	861.04443359375	50.41287994384766	1009.351684570313	731.9501953125	1059.72412109375	1179.718139648438	745.005859375	176.3169555664063	1038.015380859375	706.9644165039063	177.2018127441406	1073.358154296875	740.0436401367188	256.2584838867188	1026.113525390625	704.6253662109375	261.6150512695313	1065.985961914063	801.6582641601563	674.5933227539063	1021.576354980469	742.883544921875	669.2615356445313	1064.990234375	794.8431396484375	785.1254272460938	1028.46484375	742.1698608398438	779.5675048828125	1074.981201171875	836.3014526367188	453.1355895996094	1079.521728515625	737.3639526367188	108.0204467773438	1407.134033203125	762.7120361328125	114.9170913696289	1323.894653320313	908.2652587890625	1038.797973632813	1344.89501953125	834.29248046875	944.6287841796875	1403.278686523438	657.7763061523438	43.87727737426758	1371.100708007813	685.6715087890625	61.05032348632813	1412.806274414063	668.9744262695313	93.17282104492188	1369.038452148438	771.0001220703125	487.5833129882813	1433.064331054688	840.2423095703125	1097.9970703125	1376.697509765625	775.2598876953125	543.3665161132813	1425.650634765625	764.6378173828125	521.8951416015625	1312.962036132813	884.4085693359375	60.78050994873047	1330.523681640625	890.8217163085938	68.83692932128906	1376.710327148438	852.4500732421875	56.69363403320313	1436.805419921875	734.8084106445313	1061.076782226563	1282.771728515625	716.6278686523438	192.3728637695313	1418.357299804688	690.244384765625	196.3123931884766	1369.47314453125	707.7400512695313	272.8471069335938	1426.411865234375	686.4218139648438	275.8948364257813	1376.851806640625	791.1082763671875	652.7743530273438	1435.312377929688	731.6671142578125	654.5567016601563	1391.619750976563	793.4882202148438	763.302490234375	1432.977783203125	738.4690551757813	764.4495239257813	1390.851806640625	818.944091796875	461.1502380371094	1385.550537109375	
